<?xml version="1.0" encoding="UTF-8"?>
<svg width="70px" height="52px" viewBox="0 0 70 52" version="1.1" xmlns="http://www.w3.org/2000/svg" xmlns:xlink="http://www.w3.org/1999/xlink">
    <!-- Generator: Sketch 52.4 (67378) - http://www.bohemiancoding.com/sketch -->
    <title>Shape Copy 3</title>
    <desc>Created with Sketch.</desc>
    <g id="Page-1" stroke="none" stroke-width="1" fill="none" fill-rule="evenodd">
        <g id="Desktop" transform="translate(-292.000000, -123.000000)" fill="#043446">
            <path d="M352.878795,133.842722 C347.400564,139.638252 341.54942,143.870305 335.325189,146.53901 C333.486929,147.327183 331.637282,148.018244 329.776242,148.612194 L329.667549,175.880476 C329.657131,178.49408 328.978837,180.503163 327.632647,181.907785 C326.286457,183.312407 324.375941,184.009771 321.901043,183.999897 L308.90789,183.948057 C306.364245,183.937909 304.407789,183.225117 303.038466,181.809661 C301.669143,180.394205 300.9897,178.379705 301.000118,175.766101 L301.21437,122.015541 C301.224788,119.401937 301.9202,117.410117 303.300626,116.040022 C304.681053,114.669927 306.64306,113.989963 309.186706,114.000112 L322.179858,114.051951 C327.335896,114.072522 329.903185,116.765151 329.881801,122.129917 L329.874873,123.86809 C342.275311,127.099102 349.311977,128.998269 350.98487,129.565591 C352.657763,130.132912 353.289072,131.558623 352.878795,133.842722 Z M330,144 C330.895379,143.730217 331.735073,143.440837 332.519084,143.131859 C338.122782,140.864211 343.283035,137.336011 348,132.547154 L330.062581,128 L330,144 Z M326,150 C322.811549,150.757391 319.590815,151.244865 316.337776,151.462428 C311.1681,151.775769 307.421617,151.832352 305.098268,151.632176 L305.000044,175.811247 C304.995298,176.979422 305.376312,177.96012 306.143097,178.753371 C306.909883,179.546621 307.958255,179.945844 309.288247,179.951051 L321.783109,179.999965 C322.903102,180.00435 323.867257,179.595827 324.675602,178.774384 C325.483947,177.952941 325.890347,176.992504 325.894813,175.893045 L326,150 Z M325.980077,127.036785 L325.999967,122.110598 C326.004155,121.073359 325.605349,120.138273 324.803536,119.305311 C324.001723,118.472349 323.040718,118.053669 321.92049,118.049257 L309.423016,118.000034 C308.302789,117.995622 307.303356,118.423868 306.424688,119.284786 C305.546021,120.145705 305.104739,121.060195 305.10083,122.028284 L305,147 C305.260641,146.988721 305.535996,146.985801 305.826066,146.99124 C311.871411,147.050652 317.118126,146.771463 321.566367,146.153665 C323.101942,145.940396 324.548431,145.696761 325.905838,145.422762 L325.980077,127.036785 Z" id="Shape-Copy-3" transform="translate(327.000000, 149.000000) rotate(-90.000000) translate(-327.000000, -149.000000) "></path>
        </g>
    </g>
</svg>